<svg width="27" height="27" viewBox="0 0 27 27" fill="none" xmlns="http://www.w3.org/2000/svg">
<g clip-path="url(#clip0_1_694)">
<path d="M13.5451 0.692383C6.29308 0.692383 0.414062 6.5714 0.414062 13.8234C0.414062 19.9813 4.6538 25.1486 10.3731 26.5678V17.8362H7.66553V13.8234H10.3731V12.0943C10.3731 7.62503 12.3958 5.55348 16.7837 5.55348C17.6157 5.55348 19.0512 5.71683 19.6384 5.87966V9.51695C19.3285 9.48438 18.7901 9.4681 18.1215 9.4681C15.9685 9.4681 15.1366 10.2838 15.1366 12.4042V13.8234H19.4257L18.6888 17.8362H15.1366V26.8583C21.6385 26.0731 26.6766 20.537 26.6766 13.8234C26.6761 6.5714 20.7971 0.692383 13.5451 0.692383Z" fill="white"/>
</g>
<defs>
<clipPath id="clip0_1_694">
<rect width="26.262" height="26.262" fill="white" transform="translate(0.414062 0.692383)"/>
</clipPath>
</defs>
</svg>
