<svg width="28" height="26" viewBox="0 0 28 26" fill="none" xmlns="http://www.w3.org/2000/svg">
<g clip-path="url(#clip0_1_693)">
<path d="M13.9152 2.95418C17.4236 2.95418 17.8391 2.9689 19.2189 3.02778C20.5012 3.08174 21.1937 3.28781 21.6553 3.45953C22.2657 3.68522 22.7068 3.95997 23.1633 4.39663C23.625 4.8382 23.9071 5.25523 24.143 5.83908C24.3225 6.28064 24.538 6.9479 24.5944 8.16957C24.6559 9.49426 24.6713 9.89167 24.6713 13.2427C24.6713 16.5986 24.6559 16.996 24.5944 18.3158C24.538 19.5423 24.3225 20.2047 24.143 20.6463C23.9071 21.2301 23.6198 21.652 23.1633 22.0887C22.7017 22.5303 22.2657 22.8001 21.6553 23.0258C21.1937 23.1975 20.4961 23.4036 19.2189 23.4576C17.834 23.5164 17.4185 23.5312 13.9152 23.5312C10.4067 23.5312 9.99127 23.5164 8.61149 23.4576C7.32917 23.4036 6.63671 23.1975 6.17508 23.0258C5.56469 22.8001 5.12357 22.5254 4.66706 22.0887C4.20542 21.6471 3.92331 21.2301 3.68736 20.6463C3.50784 20.2047 3.29241 19.5374 3.23599 18.3158C3.17443 16.9911 3.15905 16.5937 3.15905 13.2427C3.15905 9.88677 3.17443 9.48936 3.23599 8.16957C3.29241 6.94299 3.50784 6.28064 3.68736 5.83908C3.92331 5.25523 4.21055 4.83329 4.66706 4.39663C5.1287 3.95506 5.56469 3.68522 6.17508 3.45953C6.63671 3.28781 7.3343 3.08174 8.61149 3.02778C9.99127 2.9689 10.4067 2.95418 13.9152 2.95418ZM13.9152 0.692383C10.3503 0.692383 9.90408 0.707102 8.50378 0.765977C7.10861 0.824853 6.14943 1.04073 5.31848 1.34983C4.45163 1.67364 3.71814 2.10049 2.98978 2.80209C2.25629 3.49878 1.81004 4.20038 1.47151 5.02464C1.14836 5.82436 0.922671 6.73693 0.861119 8.07144C0.799568 9.41576 0.78418 9.84261 0.78418 13.2525C0.78418 16.6623 0.799568 17.0892 0.861119 18.4286C0.922671 19.7631 1.14836 20.6806 1.47151 21.4754C1.81004 22.3046 2.25629 23.0062 2.98978 23.7029C3.71814 24.3996 4.45163 24.8313 5.31335 25.1502C6.14943 25.4593 7.10348 25.6752 8.49865 25.7341C9.89895 25.7929 10.3452 25.8077 13.9101 25.8077C17.4749 25.8077 17.9212 25.7929 19.3215 25.7341C20.7166 25.6752 21.6758 25.4593 22.5068 25.1502C23.3685 24.8313 24.102 24.3996 24.8303 23.7029C25.5587 23.0062 26.0101 22.3046 26.3435 21.4803C26.6666 20.6806 26.8923 19.768 26.9539 18.4335C27.0154 17.0941 27.0308 16.6673 27.0308 13.2574C27.0308 9.84752 27.0154 9.42067 26.9539 8.08125C26.8923 6.74674 26.6666 5.82927 26.3435 5.03445C26.0203 4.20038 25.5741 3.49878 24.8406 2.80209C24.1122 2.10539 23.3787 1.67364 22.517 1.35473C21.681 1.04564 20.7269 0.829759 19.3317 0.770883C17.9263 0.707102 17.4801 0.692383 13.9152 0.692383Z" fill="white"/>
<path d="M13.9152 6.80078C10.1913 6.80078 7.17016 9.69058 7.17016 13.2525C7.17016 16.8145 10.1913 19.7043 13.9152 19.7043C17.6391 19.7043 20.6602 16.8145 20.6602 13.2525C20.6602 9.69058 17.6391 6.80078 13.9152 6.80078ZM13.9152 17.4376C11.4993 17.4376 9.5399 15.5634 9.5399 13.2525C9.5399 10.9417 11.4993 9.06749 13.9152 9.06749C16.3311 9.06749 18.2905 10.9417 18.2905 13.2525C18.2905 15.5634 16.3311 17.4376 13.9152 17.4376Z" fill="white"/>
<path d="M22.5016 6.54578C22.5016 7.37985 21.7938 8.05202 20.9269 8.05202C20.055 8.05202 19.3522 7.37495 19.3522 6.54578C19.3522 5.71171 20.0601 5.03955 20.9269 5.03955C21.7938 5.03955 22.5016 5.71662 22.5016 6.54578Z" fill="white"/>
</g>
<defs>
<clipPath id="clip0_1_693">
<rect width="26.262" height="25.1202" fill="white" transform="translate(0.78418 0.692383)"/>
</clipPath>
</defs>
</svg>
