<svg width="26" height="25" viewBox="0 0 26 25" fill="none" xmlns="http://www.w3.org/2000/svg">
<g clip-path="url(#clip0_1_695)">
<path d="M23.3044 0.834473H1.89831C0.872894 0.834473 0.0437317 1.60721 0.0437317 2.5626V23.08C0.0437317 24.0354 0.872894 24.8128 1.89831 24.8128H23.3044C24.3299 24.8128 25.1639 24.0354 25.1639 23.0847V2.5626C25.1639 1.60721 24.3299 0.834473 23.3044 0.834473ZM7.49638 21.2676H3.7676V9.82168H7.49638V21.2676ZM5.63199 8.26215C4.43486 8.26215 3.46832 7.33954 3.46832 6.20151C3.46832 5.06347 4.43486 4.14086 5.63199 4.14086C6.82422 4.14086 7.79076 5.06347 7.79076 6.20151C7.79076 7.33486 6.82422 8.26215 5.63199 8.26215ZM21.4499 21.2676H17.726V15.7039C17.726 14.3785 17.7015 12.6691 15.788 12.6691C13.85 12.6691 13.5556 14.1162 13.5556 15.6102V21.2676H9.83668V9.82168H13.4085V11.3859H13.4575C13.9531 10.4867 15.1698 9.536 16.9802 9.536C20.7532 9.536 21.4499 11.9057 21.4499 14.9873V21.2676Z" fill="white"/>
</g>
<defs>
<clipPath id="clip0_1_695">
<rect width="25.1202" height="23.9784" fill="white" transform="translate(0.0437317 0.834473)"/>
</clipPath>
</defs>
</svg>
