<svg width="29" height="30" viewBox="0 0 29 30" fill="none" xmlns="http://www.w3.org/2000/svg">
<path d="M26.7559 3.56789C23.4742 0.286668 17.4714 0.96754 13.3503 5.09015C10.9349 7.50506 9.71071 10.5625 9.76246 13.3435C9.56792 16.3219 9.03415 19.1963 7.62498 20.8628L7.13769 20.375L6.38591 21.1263L6.59434 21.3348L1.53982 26.3893L1.3314 26.1809L0.580572 26.9317L3.32608 29.6787L4.07786 28.9279L3.86943 28.7199L8.92443 23.6653L9.13286 23.8733L9.8832 23.1225L9.46299 22.6999C11.1285 21.2916 13.9991 20.7583 16.9746 20.5624C19.7565 20.6165 22.8168 19.3928 25.2341 16.9755C29.3581 12.8529 30.0385 6.85006 26.7559 3.56789ZM27.3222 8.92047L26.6332 8.23241L27.1679 7.69864C27.2547 8.09537 27.3055 8.50361 27.3222 8.92047ZM26.9451 6.92241L26.1344 7.73362L24.6136 6.21231L25.8201 5.00534C26.3142 5.56655 26.6961 6.21733 26.9451 6.92241ZM12.9497 13.8318L14.8577 11.9228L16.3799 13.4446L14.471 15.3526L12.9497 13.8318ZM13.9727 15.8538L12.7638 17.0612C12.2692 16.4999 11.8872 15.8485 11.6388 15.1427L12.45 14.3325L13.9727 15.8538ZM20.1834 6.59851L22.0904 4.69053L23.6117 6.21279L21.7033 8.12125L20.1834 6.59851ZM23.2246 10.6416L21.3152 12.5543L19.792 11.0335L21.7033 9.12123L23.2246 10.6416ZM21.2035 8.621L19.2922 10.5323L17.7709 9.01103L19.6822 7.09922L21.2035 8.621ZM18.792 11.0335L16.8802 12.9448L15.3579 11.4226L17.2702 9.51126L18.792 11.0335ZM17.2702 8.5108L15.7527 6.99285L17.6641 5.08104L19.1806 6.59851L17.2702 8.5108ZM16.7705 9.01151L14.8577 10.9224L13.3407 9.40441L15.2511 7.49212L16.7705 9.01151ZM16.8802 13.9458L18.401 15.4661L16.493 17.3751L14.9727 15.8528L16.8802 13.9458ZM17.3818 13.4446L19.2922 11.5333L20.8135 13.0546L18.9007 14.9664L17.3818 13.4446ZM21.3152 13.5543L22.8302 15.0728L20.9184 16.9841L19.4 15.4661L21.3152 13.5543ZM21.8139 13.0541L23.7253 11.1428L25.2437 12.6602L23.3324 14.572L21.8139 13.0541ZM22.204 8.62148L24.1129 6.71255L25.6337 8.23289L23.7272 10.1418L22.204 8.62148ZM25.3203 4.5051L24.1129 5.71256L22.5902 4.1903L23.4004 3.38006C24.1068 3.62802 24.7587 4.01003 25.3203 4.5051ZM22.6247 3.15582L22.0909 3.68959L21.4033 3.00201C21.8202 3.01926 22.2284 3.06957 22.6247 3.15582ZM20.4249 3.02405L21.5902 4.18982L19.6827 6.09828L18.1638 4.58081L19.6113 3.1333C19.8839 3.08299 20.1556 3.04705 20.4249 3.02405ZM18.2414 3.50272L17.6645 4.08058L17.4187 3.83477C17.6878 3.71174 17.9623 3.60094 18.2414 3.50272ZM16.7532 4.16922L17.1634 4.57985L15.2511 6.49214L14.5415 5.7806C15.2079 5.15247 15.951 4.61106 16.7532 4.16922ZM14.0408 6.28179L14.7518 6.99285L12.84 8.90418L12.4294 8.49307C12.8714 7.69113 13.4128 6.94817 14.0408 6.28179ZM12.0945 9.15909L12.3398 9.40489L11.7619 9.98274C11.8587 9.7058 11.9689 9.43172 12.0945 9.15909ZM11.3925 11.3512L12.84 9.90416L14.358 11.4221L12.45 13.3296L11.2828 12.1629C11.3063 11.8946 11.3422 11.6234 11.3925 11.3512ZM11.9488 13.8313L11.415 14.3651C11.3281 13.9632 11.2768 13.5545 11.2617 13.1437L11.9488 13.8313ZM9.90093 20.4249C9.37674 19.9007 10.059 17.8691 10.5315 16.6611C10.8592 17.3315 11.2833 17.9544 11.8261 18.4972C12.3695 19.0406 12.9929 19.4651 13.6646 19.7933C12.4567 20.2653 10.4242 20.9481 9.90093 20.4249ZM13.2641 17.5619L14.4715 16.354L15.9928 17.8758L15.1806 18.686C14.4757 18.4374 13.8251 18.0558 13.2641 17.5619ZM15.9583 18.9093L16.4925 18.3751L17.1806 19.0636C16.7694 19.0482 16.3604 18.9966 15.9583 18.9093ZM18.1595 19.0416L16.9923 17.8743L18.9003 15.9664L20.4192 17.4838L18.9712 18.9328C18.7026 18.9823 18.4317 19.0186 18.1595 19.0416ZM20.3406 18.5634L20.9179 17.986L21.1642 18.2313C20.8916 18.3554 20.617 18.4661 20.3406 18.5634ZM21.8317 17.8949L21.421 17.4838L23.3324 15.573L24.0429 16.2836C23.3768 16.9118 22.6338 17.4533 21.8317 17.8949ZM24.5432 15.7833L23.8321 15.0728L25.7434 13.1609L26.155 13.5716C25.7128 14.3736 25.1712 15.1167 24.5432 15.7833ZM26.4895 12.906L26.2437 12.6607L26.821 12.0833C26.7232 12.3625 26.6125 12.637 26.4895 12.906ZM27.1909 10.7125L25.7434 12.1605L24.2265 10.6416L26.1344 8.7336L27.3007 9.90081C27.2774 10.173 27.2407 10.4439 27.1909 10.7125ZM5.35527 11.471C6.763 11.471 8.08688 10.9228 9.08255 9.92764C10.0782 8.93197 10.6259 7.60808 10.6259 6.20034C10.6259 4.79259 10.0768 3.4687 9.08111 2.47351C8.08592 1.47831 6.76252 0.929688 5.35479 0.929688C3.94706 0.929688 2.62413 1.47783 1.62894 2.47351C0.633278 3.4687 0.0846558 4.79259 0.0846558 6.20034C0.0846558 7.60808 0.632799 8.93245 1.62847 9.92764C2.1168 10.4185 2.69762 10.8076 3.33732 11.0725C3.97701 11.3374 4.66289 11.4729 5.35527 11.471ZM8.46062 3.09497C9.25415 3.88588 9.71278 4.95191 9.74137 6.07192C8.62774 6.02446 7.57258 5.56032 6.78504 4.77151C5.99577 3.98408 5.53157 2.92858 5.48464 1.81468C6.60424 1.84339 7.66987 2.30183 8.46062 3.09497ZM2.24992 3.09449C2.97224 2.36856 3.92713 1.92021 4.94703 1.82809C4.997 3.08005 5.51676 4.26723 6.40277 5.15316C7.28878 6.03909 8.47601 6.55873 9.72796 6.60857C9.63618 7.62882 9.1876 8.58403 8.4611 9.30619C7.73858 10.0321 6.78355 10.4805 5.7635 10.5726C5.71366 9.32082 5.1939 8.13383 4.30785 7.24824C3.42237 6.36202 2.23532 5.84224 0.983535 5.79258C1.07483 4.77216 1.52329 3.81669 2.24992 3.09449ZM3.92597 7.62916C4.71469 8.41696 5.1788 9.47224 5.22638 10.586C4.10653 10.5576 3.04056 10.0993 2.24944 9.30619C1.45605 8.51526 0.997738 7.44916 0.969639 6.32923C2.08316 6.37675 3.13825 6.84069 3.92597 7.62916Z" fill="white"/>
</svg>
